<svg width="526" height="340" viewBox="0 0 526 340" fill="none" xmlns="http://www.w3.org/2000/svg">
<path d="M510.308 0.600098H155.504V46.7778C155.504 55.2858 148.619 62.1704 140.111 62.1704C131.603 62.1704 124.718 55.2858 124.718 46.7778V0.600098H15.6929C7.072 0.600098 0.300293 7.37181 0.300293 15.9927V108.348C0.300293 116.967 7.072 123.741 15.6929 123.741C41.2456 123.741 61.8706 144.366 61.8706 169.918C61.8706 195.469 41.2456 216.096 15.6929 216.096C7.072 216.096 0.300293 222.868 0.300293 231.489V323.844C0.300293 332.463 7.072 339.237 15.6929 339.237H123.441V293.059C123.441 284.551 130.325 277.667 138.833 277.667C147.341 277.667 154.226 284.551 154.226 293.059V339.237H510.308C518.929 339.237 525.7 332.463 525.7 323.844V15.9927C525.7 7.37181 518.929 0.600098 510.308 0.600098ZM154.226 231.489C154.226 239.997 147.341 246.881 138.833 246.881C130.325 246.881 123.441 239.997 123.441 231.489V200.704C123.441 192.196 130.325 185.311 138.833 185.311C147.341 185.311 154.226 192.196 154.226 200.704V231.489ZM154.226 139.133C154.226 147.641 147.341 154.526 138.833 154.526C130.325 154.526 123.441 147.641 123.441 139.133V108.348C123.441 99.8402 130.325 92.9556 138.833 92.9556C147.341 92.9556 154.226 99.8402 154.226 108.348V139.133Z" fill="#FF9C94"/>
<path d="M294.812 154.526C269.348 154.526 248.634 133.812 248.634 108.348C248.634 82.8847 269.348 62.1704 294.812 62.1704C320.275 62.1704 340.989 82.8847 340.989 108.348C340.989 133.812 320.275 154.526 294.812 154.526Z" fill="#FFE399"/>
<path d="M417.952 277.667C392.489 277.667 371.774 256.952 371.774 231.489C371.774 206.025 392.489 185.311 417.952 185.311C443.416 185.311 464.13 206.025 464.13 231.489C464.13 256.952 443.416 277.667 417.952 277.667Z" fill="#FFE399"/>
<path d="M430.881 86.1821L375.161 169.919L356.382 197.932L307.741 270.893C303.124 277.667 293.581 279.822 286.191 275.203C279.111 270.278 277.264 260.735 281.882 253.653L337.603 169.919L356.382 141.903L405.024 68.9424C409.948 61.8628 419.492 60.0157 426.573 64.6325C433.653 69.5591 435.5 79.1025 430.881 86.1821Z" fill="#FFE399"/>
</svg>
