<svg width="231" height="36" viewBox="0 0 231 36" fill="none" xmlns="http://www.w3.org/2000/svg">
<g clip-path="url(#clip0)">
<path d="M0 2.64802C0 2.658 0 21.7478 0 21.7478C0.0791813 22.7133 0.364575 23.6497 0.836309 24.4918C1.30804 25.3338 1.95478 26.0613 2.73148 26.6235L16.1414 35.9994L22.073 31.8558L7.57421 21.7434V13.8847L16.1397 8.42359L16.1285 16.2503L13.4442 17.9766L15.7731 19.6L24.6175 13.9153L24.5847 21.7846L21.6117 23.6699L27.7139 27.9236C31.8198 25.046 32.2236 22.2222 32.2336 21.2411C32.2359 21.0071 32.2322 20.8779 32.2322 20.8779C32.2322 2.73759 32.2361 2.69416 32.2361 2.64781V2.64594C32.2354 1.94376 31.9604 1.27056 31.4714 0.774281C30.9824 0.277996 30.3195 -0.000773883 29.6283 -0.000773572C29.3394 -0.000801003 29.0565 0.0825072 28.8124 0.239459C28.463 0.463483 18.4308 6.91548 18.4308 6.91548L16.1397 8.38846L3.8989 0.520008C3.22385 0.083599 2.93951 -0.000773572 2.64945 -0.000773572C2.30388 -0.00511183 1.96088 0.0601259 1.64026 0.191174C1.31964 0.322222 1.02774 0.516485 0.781415 0.76275C0.53509 1.00901 0.339214 1.3024 0.205095 1.62598C0.0709765 1.94957 0.00127022 2.29693 0 2.64802" fill="#566CE6"/>
<path d="M46.3295 4.15637H50.4475L54.5951 14.7964C55.073 16.0703 55.6699 17.9496 55.6699 17.9496H55.729C55.729 17.9496 56.2966 16.0703 56.7735 14.7964L60.9211 4.15637H65.0387L66.7398 25.9768H62.9198C62.8292 24.5518 61.9954 10.3095 61.9954 10.3095H61.9341C61.9341 10.3095 61.3073 12.401 60.8012 13.6437L57.371 21.9812H53.9982L50.5962 13.6445C50.0895 12.402 49.4326 10.2796 49.4326 10.2796H49.3739C49.3739 10.2796 48.5375 24.5527 48.4487 25.9768H44.5991L46.3295 4.15637Z" fill="#566CE6"/>
<path d="M76.428 22.6925C78.8758 22.6925 80.9344 20.7521 80.9344 17.8733C80.9344 15.0231 78.8758 13.052 76.428 13.052C73.9514 13.052 71.8927 15.0225 71.8927 17.8733C71.8927 20.7523 73.9514 22.6925 76.428 22.6925ZM76.3992 9.77808C81.0539 9.77808 84.7834 13.1434 84.7834 17.8733C84.7834 22.6322 81.0535 25.9662 76.428 25.9662C71.7735 25.9668 68.0439 22.632 68.0439 17.8733C68.0439 13.1434 71.7735 9.77808 76.3992 9.77808Z" fill="#566CE6"/>
<path d="M117.992 28.1648C117.992 28.1648 118.829 28.8002 119.693 28.8002C120.738 28.8002 121.752 28.1641 122.319 26.7994L122.886 25.4357L116.471 10.219H120.738L123.93 19.1313C124.158 19.817 124.347 20.5154 124.497 21.2229H124.556C124.556 21.2229 124.796 20.0097 125.064 19.192L128.048 10.219H132.196L125.392 28.013C124.318 30.832 122.201 32.0446 119.902 32.0446C118.775 32.0277 117.677 31.6804 116.739 31.0446L117.992 28.1648Z" fill="#566CE6"/>
<path d="M135.713 4.15637H147.887V7.9178H139.562V16.0475H146.575V18.6848H139.562V25.9768H135.713V4.15637Z" fill="#566CE6"/>
<path d="M164.841 4.15637H168.601V20.2827C168.601 21.981 169.167 22.4049 170.152 22.4049C170.45 22.4049 170.719 22.3746 170.719 22.3746V25.9768H169.525C167.437 25.9768 164.841 25.2846 164.841 20.8596V4.15637Z" fill="#566CE6"/>
<path d="M172.122 4.15637H175.882V20.2827C175.882 21.981 176.448 22.4049 177.433 22.4049C177.732 22.4049 178 22.3746 178 22.3746V25.9768H176.806C174.718 25.9768 172.122 25.2846 172.122 20.8596V4.15637Z" fill="#566CE6"/>
<path d="M186.864 22.7691C189.311 22.7691 191.37 20.8287 191.37 17.9495C191.37 15.0997 189.311 13.1282 186.864 13.1282C184.387 13.1282 182.328 15.0991 182.328 17.9495C182.328 20.8289 184.387 22.7691 186.864 22.7691V22.7691ZM186.834 9.85449C191.489 9.85449 195.219 13.2194 195.219 17.9488C195.219 22.7078 191.489 26.0421 186.864 26.0421C182.209 26.0421 178.478 22.7076 178.478 17.9488C178.478 13.2198 182.209 9.85449 186.834 9.85449Z" fill="#566CE6"/>
<path d="M195.401 9.85522H199.4L202.055 20.3741C202.188 20.9129 202.287 21.4595 202.353 22.0109H202.413C202.413 22.0109 202.562 21.1923 202.771 20.3741L205.576 9.85522H208.948L211.752 20.3741C211.961 21.1923 212.081 22.0109 212.081 22.0109H212.14C212.14 22.0109 212.26 21.1923 212.469 20.3741L215.125 9.85522H219.063L214.438 25.9776H210.231L207.665 16.8586C207.426 16.04 207.276 15.1919 207.276 15.1919H207.217C207.132 15.7546 207.013 16.3113 206.858 16.8586L204.293 25.9776H200.055L195.401 9.85522Z" fill="#566CE6"/>
<path d="M220.828 21.0719C220.828 21.0719 222.498 22.7691 224.975 22.7691C226.049 22.7691 226.975 22.284 226.975 21.3746C226.975 19.0708 219.574 19.3738 219.574 14.4025C219.574 11.5226 222.111 9.8551 225.393 9.8551C228.824 9.8551 230.496 11.6134 230.496 11.6134L229.092 14.4632C228.042 13.5868 226.722 13.1144 225.363 13.1292C224.379 13.1292 223.424 13.5536 223.424 14.5241C223.424 16.7061 230.824 16.4337 230.824 21.405C230.824 23.9819 228.616 26.0432 225.005 26.0432C221.216 26.0432 219.097 23.7697 219.097 23.7697L220.828 21.0719Z" fill="#566CE6"/>
<path d="M163.107 17.1911C163.107 13.0988 160.75 9.85522 156.363 9.85522C151.828 9.85522 148.635 13.1898 148.635 17.9496C148.635 22.3448 151.768 26.0433 156.81 26.0433C159.042 26.0576 161.207 25.2742 162.927 23.8303L161.465 21.0716C161.465 21.0716 159.526 22.7688 157.079 22.7688C155.233 22.7688 153.543 21.8297 152.843 20.0304C152.818 19.9541 152.782 19.887 152.758 19.813C152.718 19.6925 152.683 19.5691 152.652 19.4417C152.247 17.9454 152.271 16.7991 152.477 15.9273L152.471 15.9259C152.471 15.9259 153.033 12.8265 156.203 12.8265V12.8303C156.227 12.8303 156.249 12.8247 156.274 12.8247C157.945 12.8247 159.228 13.9469 159.288 16.0379H155.408V18.6761H163.018C163.018 18.6761 163.108 17.6462 163.108 17.1911" fill="#566CE6"/>
<path d="M116.727 17.1911C116.727 13.0988 114.369 9.85522 109.982 9.85522C105.447 9.85522 102.255 13.1898 102.255 17.9496C102.255 22.3448 105.388 26.0433 110.43 26.0433C112.662 26.0576 114.827 25.2742 116.547 23.8303L115.085 21.0716C115.085 21.0716 113.146 22.7684 110.7 22.769C108.683 22.769 106.767 21.4845 106.272 19.4419C105.867 17.9456 105.892 16.7993 106.092 15.9263C106.092 15.9263 106.653 12.8268 109.823 12.8313C109.847 12.8313 109.869 12.8257 109.894 12.8257C111.565 12.8257 112.847 13.9479 112.908 16.0389H109.028V18.6761H116.638C116.638 18.6761 116.727 17.6462 116.727 17.1911" fill="#566CE6"/>
<path d="M86.3579 9.85522H90.1304V12.3004C90.1304 12.8766 90.1099 12.5853 90.1099 12.5853L90.1304 12.3762C90.7874 11.0728 92.1469 9.85522 95.221 9.85522C98.5928 9.85522 100.68 11.9365 100.68 16.0287V25.9716H96.9211V16.817C96.9211 14.8461 95.3109 13.4832 93.4078 13.6881C90.6537 13.9861 90.1474 16.5086 90.1474 18.8785V25.9716H86.3579V9.85522Z" fill="#566CE6"/>
</g>
<defs>
<clipPath id="clip0">
<rect width="230.824" height="36" fill="white"/>
</clipPath>
</defs>
</svg>
